<mxfile host="app.diagrams.net" agent="Mozilla/5.0 (Windows NT 10.0; Win64; x64) AppleWebKit/537.36 (KHTML, like Gecko) Chrome/139.0.0.0 Safari/537.36 Edg/139.0.0.0" version="28.1.1">
  <diagram name="Page-1" id="tatGor_TDmOpCSjWYa6Y">
    <mxGraphModel dx="1034" dy="666" grid="1" gridSize="10" guides="1" tooltips="1" connect="1" arrows="1" fold="1" page="1" pageScale="1" pageWidth="850" pageHeight="1100" math="0" shadow="0">
      <root>
        <mxCell id="0" />
        <mxCell id="1" parent="0" />
        <mxCell id="maJjd6y7SNSq4FLqFDlG-1" value="USERS" style="shape=table;startSize=25;container=1;collapsible=0;childLayout=tableLayout;fixedRows=1;rowLines=1;fontStyle=1;align=center;resizeLast=1;" vertex="1" parent="1">
          <mxGeometry x="314" y="30" width="237" height="172" as="geometry" />
        </mxCell>
        <mxCell id="maJjd6y7SNSq4FLqFDlG-2" style="shape=tableRow;horizontal=0;startSize=0;swimlaneHead=0;swimlaneBody=0;fillColor=none;collapsible=0;dropTarget=0;points=[[0,0.5],[1,0.5]];portConstraint=eastwest;top=0;left=0;right=0;bottom=0;" vertex="1" parent="maJjd6y7SNSq4FLqFDlG-1">
          <mxGeometry y="25" width="237" height="49" as="geometry" />
        </mxCell>
        <mxCell id="maJjd6y7SNSq4FLqFDlG-3" value="uuid" style="shape=partialRectangle;connectable=0;fillColor=none;top=0;left=0;bottom=0;right=0;align=left;spacingLeft=2;overflow=hidden;fontSize=11;" vertex="1" parent="maJjd6y7SNSq4FLqFDlG-2">
          <mxGeometry width="48" height="49" as="geometry">
            <mxRectangle width="48" height="49" as="alternateBounds" />
          </mxGeometry>
        </mxCell>
        <mxCell id="maJjd6y7SNSq4FLqFDlG-4" value="id" style="shape=partialRectangle;connectable=0;fillColor=none;top=0;left=0;bottom=0;right=0;align=left;spacingLeft=2;overflow=hidden;fontSize=11;" vertex="1" parent="maJjd6y7SNSq4FLqFDlG-2">
          <mxGeometry x="48" width="167" height="49" as="geometry">
            <mxRectangle width="167" height="49" as="alternateBounds" />
          </mxGeometry>
        </mxCell>
        <mxCell id="maJjd6y7SNSq4FLqFDlG-5" value="PK" style="shape=partialRectangle;connectable=0;fillColor=none;top=0;left=0;bottom=0;right=0;align=left;spacingLeft=2;overflow=hidden;fontSize=11;" vertex="1" parent="maJjd6y7SNSq4FLqFDlG-2">
          <mxGeometry x="215" width="22" height="49" as="geometry">
            <mxRectangle width="22" height="49" as="alternateBounds" />
          </mxGeometry>
        </mxCell>
        <mxCell id="maJjd6y7SNSq4FLqFDlG-6" style="shape=tableRow;horizontal=0;startSize=0;swimlaneHead=0;swimlaneBody=0;fillColor=none;collapsible=0;dropTarget=0;points=[[0,0.5],[1,0.5]];portConstraint=eastwest;top=0;left=0;right=0;bottom=0;" vertex="1" parent="maJjd6y7SNSq4FLqFDlG-1">
          <mxGeometry y="74" width="237" height="49" as="geometry" />
        </mxCell>
        <mxCell id="maJjd6y7SNSq4FLqFDlG-7" value="string" style="shape=partialRectangle;connectable=0;fillColor=none;top=0;left=0;bottom=0;right=0;align=left;spacingLeft=2;overflow=hidden;fontSize=11;" vertex="1" parent="maJjd6y7SNSq4FLqFDlG-6">
          <mxGeometry width="48" height="49" as="geometry">
            <mxRectangle width="48" height="49" as="alternateBounds" />
          </mxGeometry>
        </mxCell>
        <mxCell id="maJjd6y7SNSq4FLqFDlG-8" value="email" style="shape=partialRectangle;connectable=0;fillColor=none;top=0;left=0;bottom=0;right=0;align=left;spacingLeft=2;overflow=hidden;fontSize=11;" vertex="1" parent="maJjd6y7SNSq4FLqFDlG-6">
          <mxGeometry x="48" width="167" height="49" as="geometry">
            <mxRectangle width="167" height="49" as="alternateBounds" />
          </mxGeometry>
        </mxCell>
        <mxCell id="maJjd6y7SNSq4FLqFDlG-9" value="" style="shape=partialRectangle;connectable=0;fillColor=none;top=0;left=0;bottom=0;right=0;align=left;spacingLeft=2;overflow=hidden;fontSize=11;" vertex="1" parent="maJjd6y7SNSq4FLqFDlG-6">
          <mxGeometry x="215" width="22" height="49" as="geometry">
            <mxRectangle width="22" height="49" as="alternateBounds" />
          </mxGeometry>
        </mxCell>
        <mxCell id="maJjd6y7SNSq4FLqFDlG-10" style="shape=tableRow;horizontal=0;startSize=0;swimlaneHead=0;swimlaneBody=0;fillColor=none;collapsible=0;dropTarget=0;points=[[0,0.5],[1,0.5]];portConstraint=eastwest;top=0;left=0;right=0;bottom=0;" vertex="1" parent="maJjd6y7SNSq4FLqFDlG-1">
          <mxGeometry y="123" width="237" height="49" as="geometry" />
        </mxCell>
        <mxCell id="maJjd6y7SNSq4FLqFDlG-11" value="datetime" style="shape=partialRectangle;connectable=0;fillColor=none;top=0;left=0;bottom=0;right=0;align=left;spacingLeft=2;overflow=hidden;fontSize=11;" vertex="1" parent="maJjd6y7SNSq4FLqFDlG-10">
          <mxGeometry width="48" height="49" as="geometry">
            <mxRectangle width="48" height="49" as="alternateBounds" />
          </mxGeometry>
        </mxCell>
        <mxCell id="maJjd6y7SNSq4FLqFDlG-12" value="created_at" style="shape=partialRectangle;connectable=0;fillColor=none;top=0;left=0;bottom=0;right=0;align=left;spacingLeft=2;overflow=hidden;fontSize=11;" vertex="1" parent="maJjd6y7SNSq4FLqFDlG-10">
          <mxGeometry x="48" width="167" height="49" as="geometry">
            <mxRectangle width="167" height="49" as="alternateBounds" />
          </mxGeometry>
        </mxCell>
        <mxCell id="maJjd6y7SNSq4FLqFDlG-13" value="" style="shape=partialRectangle;connectable=0;fillColor=none;top=0;left=0;bottom=0;right=0;align=left;spacingLeft=2;overflow=hidden;fontSize=11;" vertex="1" parent="maJjd6y7SNSq4FLqFDlG-10">
          <mxGeometry x="215" width="22" height="49" as="geometry">
            <mxRectangle width="22" height="49" as="alternateBounds" />
          </mxGeometry>
        </mxCell>
        <mxCell id="maJjd6y7SNSq4FLqFDlG-14" value="QUIZ_SESSIONS" style="shape=table;startSize=25;container=1;collapsible=0;childLayout=tableLayout;fixedRows=1;rowLines=1;fontStyle=1;align=center;resizeLast=1;" vertex="1" parent="1">
          <mxGeometry x="110" y="303" width="258" height="257" as="geometry" />
        </mxCell>
        <mxCell id="maJjd6y7SNSq4FLqFDlG-15" style="shape=tableRow;horizontal=0;startSize=0;swimlaneHead=0;swimlaneBody=0;fillColor=none;collapsible=0;dropTarget=0;points=[[0,0.5],[1,0.5]];portConstraint=eastwest;top=0;left=0;right=0;bottom=0;" vertex="1" parent="maJjd6y7SNSq4FLqFDlG-14">
          <mxGeometry y="25" width="258" height="46" as="geometry" />
        </mxCell>
        <mxCell id="maJjd6y7SNSq4FLqFDlG-16" value="uuid" style="shape=partialRectangle;connectable=0;fillColor=none;top=0;left=0;bottom=0;right=0;align=left;spacingLeft=2;overflow=hidden;fontSize=11;" vertex="1" parent="maJjd6y7SNSq4FLqFDlG-15">
          <mxGeometry width="48" height="46" as="geometry">
            <mxRectangle width="48" height="46" as="alternateBounds" />
          </mxGeometry>
        </mxCell>
        <mxCell id="maJjd6y7SNSq4FLqFDlG-17" value="id" style="shape=partialRectangle;connectable=0;fillColor=none;top=0;left=0;bottom=0;right=0;align=left;spacingLeft=2;overflow=hidden;fontSize=11;" vertex="1" parent="maJjd6y7SNSq4FLqFDlG-15">
          <mxGeometry x="48" width="188" height="46" as="geometry">
            <mxRectangle width="188" height="46" as="alternateBounds" />
          </mxGeometry>
        </mxCell>
        <mxCell id="maJjd6y7SNSq4FLqFDlG-18" value="PK" style="shape=partialRectangle;connectable=0;fillColor=none;top=0;left=0;bottom=0;right=0;align=left;spacingLeft=2;overflow=hidden;fontSize=11;" vertex="1" parent="maJjd6y7SNSq4FLqFDlG-15">
          <mxGeometry x="236" width="22" height="46" as="geometry">
            <mxRectangle width="22" height="46" as="alternateBounds" />
          </mxGeometry>
        </mxCell>
        <mxCell id="maJjd6y7SNSq4FLqFDlG-19" style="shape=tableRow;horizontal=0;startSize=0;swimlaneHead=0;swimlaneBody=0;fillColor=none;collapsible=0;dropTarget=0;points=[[0,0.5],[1,0.5]];portConstraint=eastwest;top=0;left=0;right=0;bottom=0;" vertex="1" parent="maJjd6y7SNSq4FLqFDlG-14">
          <mxGeometry y="71" width="258" height="46" as="geometry" />
        </mxCell>
        <mxCell id="maJjd6y7SNSq4FLqFDlG-20" value="uuid" style="shape=partialRectangle;connectable=0;fillColor=none;top=0;left=0;bottom=0;right=0;align=left;spacingLeft=2;overflow=hidden;fontSize=11;" vertex="1" parent="maJjd6y7SNSq4FLqFDlG-19">
          <mxGeometry width="48" height="46" as="geometry">
            <mxRectangle width="48" height="46" as="alternateBounds" />
          </mxGeometry>
        </mxCell>
        <mxCell id="maJjd6y7SNSq4FLqFDlG-21" value="user_id" style="shape=partialRectangle;connectable=0;fillColor=none;top=0;left=0;bottom=0;right=0;align=left;spacingLeft=2;overflow=hidden;fontSize=11;" vertex="1" parent="maJjd6y7SNSq4FLqFDlG-19">
          <mxGeometry x="48" width="188" height="46" as="geometry">
            <mxRectangle width="188" height="46" as="alternateBounds" />
          </mxGeometry>
        </mxCell>
        <mxCell id="maJjd6y7SNSq4FLqFDlG-22" value="FK" style="shape=partialRectangle;connectable=0;fillColor=none;top=0;left=0;bottom=0;right=0;align=left;spacingLeft=2;overflow=hidden;fontSize=11;" vertex="1" parent="maJjd6y7SNSq4FLqFDlG-19">
          <mxGeometry x="236" width="22" height="46" as="geometry">
            <mxRectangle width="22" height="46" as="alternateBounds" />
          </mxGeometry>
        </mxCell>
        <mxCell id="maJjd6y7SNSq4FLqFDlG-23" style="shape=tableRow;horizontal=0;startSize=0;swimlaneHead=0;swimlaneBody=0;fillColor=none;collapsible=0;dropTarget=0;points=[[0,0.5],[1,0.5]];portConstraint=eastwest;top=0;left=0;right=0;bottom=0;" vertex="1" parent="maJjd6y7SNSq4FLqFDlG-14">
          <mxGeometry y="117" width="258" height="46" as="geometry" />
        </mxCell>
        <mxCell id="maJjd6y7SNSq4FLqFDlG-24" value="datetime" style="shape=partialRectangle;connectable=0;fillColor=none;top=0;left=0;bottom=0;right=0;align=left;spacingLeft=2;overflow=hidden;fontSize=11;" vertex="1" parent="maJjd6y7SNSq4FLqFDlG-23">
          <mxGeometry width="48" height="46" as="geometry">
            <mxRectangle width="48" height="46" as="alternateBounds" />
          </mxGeometry>
        </mxCell>
        <mxCell id="maJjd6y7SNSq4FLqFDlG-25" value="started_at" style="shape=partialRectangle;connectable=0;fillColor=none;top=0;left=0;bottom=0;right=0;align=left;spacingLeft=2;overflow=hidden;fontSize=11;" vertex="1" parent="maJjd6y7SNSq4FLqFDlG-23">
          <mxGeometry x="48" width="188" height="46" as="geometry">
            <mxRectangle width="188" height="46" as="alternateBounds" />
          </mxGeometry>
        </mxCell>
        <mxCell id="maJjd6y7SNSq4FLqFDlG-26" value="" style="shape=partialRectangle;connectable=0;fillColor=none;top=0;left=0;bottom=0;right=0;align=left;spacingLeft=2;overflow=hidden;fontSize=11;" vertex="1" parent="maJjd6y7SNSq4FLqFDlG-23">
          <mxGeometry x="236" width="22" height="46" as="geometry">
            <mxRectangle width="22" height="46" as="alternateBounds" />
          </mxGeometry>
        </mxCell>
        <mxCell id="maJjd6y7SNSq4FLqFDlG-27" style="shape=tableRow;horizontal=0;startSize=0;swimlaneHead=0;swimlaneBody=0;fillColor=none;collapsible=0;dropTarget=0;points=[[0,0.5],[1,0.5]];portConstraint=eastwest;top=0;left=0;right=0;bottom=0;" vertex="1" parent="maJjd6y7SNSq4FLqFDlG-14">
          <mxGeometry y="163" width="258" height="46" as="geometry" />
        </mxCell>
        <mxCell id="maJjd6y7SNSq4FLqFDlG-28" value="datetime" style="shape=partialRectangle;connectable=0;fillColor=none;top=0;left=0;bottom=0;right=0;align=left;spacingLeft=2;overflow=hidden;fontSize=11;" vertex="1" parent="maJjd6y7SNSq4FLqFDlG-27">
          <mxGeometry width="48" height="46" as="geometry">
            <mxRectangle width="48" height="46" as="alternateBounds" />
          </mxGeometry>
        </mxCell>
        <mxCell id="maJjd6y7SNSq4FLqFDlG-29" value="completed_at" style="shape=partialRectangle;connectable=0;fillColor=none;top=0;left=0;bottom=0;right=0;align=left;spacingLeft=2;overflow=hidden;fontSize=11;" vertex="1" parent="maJjd6y7SNSq4FLqFDlG-27">
          <mxGeometry x="48" width="188" height="46" as="geometry">
            <mxRectangle width="188" height="46" as="alternateBounds" />
          </mxGeometry>
        </mxCell>
        <mxCell id="maJjd6y7SNSq4FLqFDlG-30" value="" style="shape=partialRectangle;connectable=0;fillColor=none;top=0;left=0;bottom=0;right=0;align=left;spacingLeft=2;overflow=hidden;fontSize=11;" vertex="1" parent="maJjd6y7SNSq4FLqFDlG-27">
          <mxGeometry x="236" width="22" height="46" as="geometry">
            <mxRectangle width="22" height="46" as="alternateBounds" />
          </mxGeometry>
        </mxCell>
        <mxCell id="maJjd6y7SNSq4FLqFDlG-31" style="shape=tableRow;horizontal=0;startSize=0;swimlaneHead=0;swimlaneBody=0;fillColor=none;collapsible=0;dropTarget=0;points=[[0,0.5],[1,0.5]];portConstraint=eastwest;top=0;left=0;right=0;bottom=0;" vertex="1" parent="maJjd6y7SNSq4FLqFDlG-14">
          <mxGeometry y="209" width="258" height="46" as="geometry" />
        </mxCell>
        <mxCell id="maJjd6y7SNSq4FLqFDlG-32" value="string" style="shape=partialRectangle;connectable=0;fillColor=none;top=0;left=0;bottom=0;right=0;align=left;spacingLeft=2;overflow=hidden;fontSize=11;" vertex="1" parent="maJjd6y7SNSq4FLqFDlG-31">
          <mxGeometry width="48" height="46" as="geometry">
            <mxRectangle width="48" height="46" as="alternateBounds" />
          </mxGeometry>
        </mxCell>
        <mxCell id="maJjd6y7SNSq4FLqFDlG-33" value="variant" style="shape=partialRectangle;connectable=0;fillColor=none;top=0;left=0;bottom=0;right=0;align=left;spacingLeft=2;overflow=hidden;fontSize=11;" vertex="1" parent="maJjd6y7SNSq4FLqFDlG-31">
          <mxGeometry x="48" width="188" height="46" as="geometry">
            <mxRectangle width="188" height="46" as="alternateBounds" />
          </mxGeometry>
        </mxCell>
        <mxCell id="maJjd6y7SNSq4FLqFDlG-34" value="" style="shape=partialRectangle;connectable=0;fillColor=none;top=0;left=0;bottom=0;right=0;align=left;spacingLeft=2;overflow=hidden;fontSize=11;" vertex="1" parent="maJjd6y7SNSq4FLqFDlG-31">
          <mxGeometry x="236" width="22" height="46" as="geometry">
            <mxRectangle width="22" height="46" as="alternateBounds" />
          </mxGeometry>
        </mxCell>
        <mxCell id="maJjd6y7SNSq4FLqFDlG-35" value="QUIZ_ANSWERS" style="shape=table;startSize=25;container=1;collapsible=0;childLayout=tableLayout;fixedRows=1;rowLines=1;fontStyle=1;align=center;resizeLast=1;" vertex="1" parent="1">
          <mxGeometry x="118" y="662" width="241" height="257" as="geometry" />
        </mxCell>
        <mxCell id="maJjd6y7SNSq4FLqFDlG-36" style="shape=tableRow;horizontal=0;startSize=0;swimlaneHead=0;swimlaneBody=0;fillColor=none;collapsible=0;dropTarget=0;points=[[0,0.5],[1,0.5]];portConstraint=eastwest;top=0;left=0;right=0;bottom=0;" vertex="1" parent="maJjd6y7SNSq4FLqFDlG-35">
          <mxGeometry y="25" width="241" height="46" as="geometry" />
        </mxCell>
        <mxCell id="maJjd6y7SNSq4FLqFDlG-37" value="uuid" style="shape=partialRectangle;connectable=0;fillColor=none;top=0;left=0;bottom=0;right=0;align=left;spacingLeft=2;overflow=hidden;fontSize=11;" vertex="1" parent="maJjd6y7SNSq4FLqFDlG-36">
          <mxGeometry width="48" height="46" as="geometry">
            <mxRectangle width="48" height="46" as="alternateBounds" />
          </mxGeometry>
        </mxCell>
        <mxCell id="maJjd6y7SNSq4FLqFDlG-38" value="id" style="shape=partialRectangle;connectable=0;fillColor=none;top=0;left=0;bottom=0;right=0;align=left;spacingLeft=2;overflow=hidden;fontSize=11;" vertex="1" parent="maJjd6y7SNSq4FLqFDlG-36">
          <mxGeometry x="48" width="171" height="46" as="geometry">
            <mxRectangle width="171" height="46" as="alternateBounds" />
          </mxGeometry>
        </mxCell>
        <mxCell id="maJjd6y7SNSq4FLqFDlG-39" value="PK" style="shape=partialRectangle;connectable=0;fillColor=none;top=0;left=0;bottom=0;right=0;align=left;spacingLeft=2;overflow=hidden;fontSize=11;" vertex="1" parent="maJjd6y7SNSq4FLqFDlG-36">
          <mxGeometry x="219" width="22" height="46" as="geometry">
            <mxRectangle width="22" height="46" as="alternateBounds" />
          </mxGeometry>
        </mxCell>
        <mxCell id="maJjd6y7SNSq4FLqFDlG-40" style="shape=tableRow;horizontal=0;startSize=0;swimlaneHead=0;swimlaneBody=0;fillColor=none;collapsible=0;dropTarget=0;points=[[0,0.5],[1,0.5]];portConstraint=eastwest;top=0;left=0;right=0;bottom=0;" vertex="1" parent="maJjd6y7SNSq4FLqFDlG-35">
          <mxGeometry y="71" width="241" height="46" as="geometry" />
        </mxCell>
        <mxCell id="maJjd6y7SNSq4FLqFDlG-41" value="uuid" style="shape=partialRectangle;connectable=0;fillColor=none;top=0;left=0;bottom=0;right=0;align=left;spacingLeft=2;overflow=hidden;fontSize=11;" vertex="1" parent="maJjd6y7SNSq4FLqFDlG-40">
          <mxGeometry width="48" height="46" as="geometry">
            <mxRectangle width="48" height="46" as="alternateBounds" />
          </mxGeometry>
        </mxCell>
        <mxCell id="maJjd6y7SNSq4FLqFDlG-42" value="session_id" style="shape=partialRectangle;connectable=0;fillColor=none;top=0;left=0;bottom=0;right=0;align=left;spacingLeft=2;overflow=hidden;fontSize=11;" vertex="1" parent="maJjd6y7SNSq4FLqFDlG-40">
          <mxGeometry x="48" width="171" height="46" as="geometry">
            <mxRectangle width="171" height="46" as="alternateBounds" />
          </mxGeometry>
        </mxCell>
        <mxCell id="maJjd6y7SNSq4FLqFDlG-43" value="FK" style="shape=partialRectangle;connectable=0;fillColor=none;top=0;left=0;bottom=0;right=0;align=left;spacingLeft=2;overflow=hidden;fontSize=11;" vertex="1" parent="maJjd6y7SNSq4FLqFDlG-40">
          <mxGeometry x="219" width="22" height="46" as="geometry">
            <mxRectangle width="22" height="46" as="alternateBounds" />
          </mxGeometry>
        </mxCell>
        <mxCell id="maJjd6y7SNSq4FLqFDlG-44" style="shape=tableRow;horizontal=0;startSize=0;swimlaneHead=0;swimlaneBody=0;fillColor=none;collapsible=0;dropTarget=0;points=[[0,0.5],[1,0.5]];portConstraint=eastwest;top=0;left=0;right=0;bottom=0;" vertex="1" parent="maJjd6y7SNSq4FLqFDlG-35">
          <mxGeometry y="117" width="241" height="46" as="geometry" />
        </mxCell>
        <mxCell id="maJjd6y7SNSq4FLqFDlG-45" value="string" style="shape=partialRectangle;connectable=0;fillColor=none;top=0;left=0;bottom=0;right=0;align=left;spacingLeft=2;overflow=hidden;fontSize=11;" vertex="1" parent="maJjd6y7SNSq4FLqFDlG-44">
          <mxGeometry width="48" height="46" as="geometry">
            <mxRectangle width="48" height="46" as="alternateBounds" />
          </mxGeometry>
        </mxCell>
        <mxCell id="maJjd6y7SNSq4FLqFDlG-46" value="question_id" style="shape=partialRectangle;connectable=0;fillColor=none;top=0;left=0;bottom=0;right=0;align=left;spacingLeft=2;overflow=hidden;fontSize=11;" vertex="1" parent="maJjd6y7SNSq4FLqFDlG-44">
          <mxGeometry x="48" width="171" height="46" as="geometry">
            <mxRectangle width="171" height="46" as="alternateBounds" />
          </mxGeometry>
        </mxCell>
        <mxCell id="maJjd6y7SNSq4FLqFDlG-47" value="" style="shape=partialRectangle;connectable=0;fillColor=none;top=0;left=0;bottom=0;right=0;align=left;spacingLeft=2;overflow=hidden;fontSize=11;" vertex="1" parent="maJjd6y7SNSq4FLqFDlG-44">
          <mxGeometry x="219" width="22" height="46" as="geometry">
            <mxRectangle width="22" height="46" as="alternateBounds" />
          </mxGeometry>
        </mxCell>
        <mxCell id="maJjd6y7SNSq4FLqFDlG-48" style="shape=tableRow;horizontal=0;startSize=0;swimlaneHead=0;swimlaneBody=0;fillColor=none;collapsible=0;dropTarget=0;points=[[0,0.5],[1,0.5]];portConstraint=eastwest;top=0;left=0;right=0;bottom=0;" vertex="1" parent="maJjd6y7SNSq4FLqFDlG-35">
          <mxGeometry y="163" width="241" height="46" as="geometry" />
        </mxCell>
        <mxCell id="maJjd6y7SNSq4FLqFDlG-49" value="string" style="shape=partialRectangle;connectable=0;fillColor=none;top=0;left=0;bottom=0;right=0;align=left;spacingLeft=2;overflow=hidden;fontSize=11;" vertex="1" parent="maJjd6y7SNSq4FLqFDlG-48">
          <mxGeometry width="48" height="46" as="geometry">
            <mxRectangle width="48" height="46" as="alternateBounds" />
          </mxGeometry>
        </mxCell>
        <mxCell id="maJjd6y7SNSq4FLqFDlG-50" value="answer_id" style="shape=partialRectangle;connectable=0;fillColor=none;top=0;left=0;bottom=0;right=0;align=left;spacingLeft=2;overflow=hidden;fontSize=11;" vertex="1" parent="maJjd6y7SNSq4FLqFDlG-48">
          <mxGeometry x="48" width="171" height="46" as="geometry">
            <mxRectangle width="171" height="46" as="alternateBounds" />
          </mxGeometry>
        </mxCell>
        <mxCell id="maJjd6y7SNSq4FLqFDlG-51" value="" style="shape=partialRectangle;connectable=0;fillColor=none;top=0;left=0;bottom=0;right=0;align=left;spacingLeft=2;overflow=hidden;fontSize=11;" vertex="1" parent="maJjd6y7SNSq4FLqFDlG-48">
          <mxGeometry x="219" width="22" height="46" as="geometry">
            <mxRectangle width="22" height="46" as="alternateBounds" />
          </mxGeometry>
        </mxCell>
        <mxCell id="maJjd6y7SNSq4FLqFDlG-52" style="shape=tableRow;horizontal=0;startSize=0;swimlaneHead=0;swimlaneBody=0;fillColor=none;collapsible=0;dropTarget=0;points=[[0,0.5],[1,0.5]];portConstraint=eastwest;top=0;left=0;right=0;bottom=0;" vertex="1" parent="maJjd6y7SNSq4FLqFDlG-35">
          <mxGeometry y="209" width="241" height="46" as="geometry" />
        </mxCell>
        <mxCell id="maJjd6y7SNSq4FLqFDlG-53" value="datetime" style="shape=partialRectangle;connectable=0;fillColor=none;top=0;left=0;bottom=0;right=0;align=left;spacingLeft=2;overflow=hidden;fontSize=11;" vertex="1" parent="maJjd6y7SNSq4FLqFDlG-52">
          <mxGeometry width="48" height="46" as="geometry">
            <mxRectangle width="48" height="46" as="alternateBounds" />
          </mxGeometry>
        </mxCell>
        <mxCell id="maJjd6y7SNSq4FLqFDlG-54" value="created_at" style="shape=partialRectangle;connectable=0;fillColor=none;top=0;left=0;bottom=0;right=0;align=left;spacingLeft=2;overflow=hidden;fontSize=11;" vertex="1" parent="maJjd6y7SNSq4FLqFDlG-52">
          <mxGeometry x="48" width="171" height="46" as="geometry">
            <mxRectangle width="171" height="46" as="alternateBounds" />
          </mxGeometry>
        </mxCell>
        <mxCell id="maJjd6y7SNSq4FLqFDlG-55" value="" style="shape=partialRectangle;connectable=0;fillColor=none;top=0;left=0;bottom=0;right=0;align=left;spacingLeft=2;overflow=hidden;fontSize=11;" vertex="1" parent="maJjd6y7SNSq4FLqFDlG-52">
          <mxGeometry x="219" width="22" height="46" as="geometry">
            <mxRectangle width="22" height="46" as="alternateBounds" />
          </mxGeometry>
        </mxCell>
        <mxCell id="maJjd6y7SNSq4FLqFDlG-56" value="LEADS" style="shape=table;startSize=25;container=1;collapsible=0;childLayout=tableLayout;fixedRows=1;rowLines=1;fontStyle=1;align=center;resizeLast=1;" vertex="1" parent="1">
          <mxGeometry x="508" y="325" width="237" height="214" as="geometry" />
        </mxCell>
        <mxCell id="maJjd6y7SNSq4FLqFDlG-57" style="shape=tableRow;horizontal=0;startSize=0;swimlaneHead=0;swimlaneBody=0;fillColor=none;collapsible=0;dropTarget=0;points=[[0,0.5],[1,0.5]];portConstraint=eastwest;top=0;left=0;right=0;bottom=0;" vertex="1" parent="maJjd6y7SNSq4FLqFDlG-56">
          <mxGeometry y="25" width="237" height="47" as="geometry" />
        </mxCell>
        <mxCell id="maJjd6y7SNSq4FLqFDlG-58" value="uuid" style="shape=partialRectangle;connectable=0;fillColor=none;top=0;left=0;bottom=0;right=0;align=left;spacingLeft=2;overflow=hidden;fontSize=11;" vertex="1" parent="maJjd6y7SNSq4FLqFDlG-57">
          <mxGeometry width="48" height="47" as="geometry">
            <mxRectangle width="48" height="47" as="alternateBounds" />
          </mxGeometry>
        </mxCell>
        <mxCell id="maJjd6y7SNSq4FLqFDlG-59" value="id" style="shape=partialRectangle;connectable=0;fillColor=none;top=0;left=0;bottom=0;right=0;align=left;spacingLeft=2;overflow=hidden;fontSize=11;" vertex="1" parent="maJjd6y7SNSq4FLqFDlG-57">
          <mxGeometry x="48" width="167" height="47" as="geometry">
            <mxRectangle width="167" height="47" as="alternateBounds" />
          </mxGeometry>
        </mxCell>
        <mxCell id="maJjd6y7SNSq4FLqFDlG-60" value="PK" style="shape=partialRectangle;connectable=0;fillColor=none;top=0;left=0;bottom=0;right=0;align=left;spacingLeft=2;overflow=hidden;fontSize=11;" vertex="1" parent="maJjd6y7SNSq4FLqFDlG-57">
          <mxGeometry x="215" width="22" height="47" as="geometry">
            <mxRectangle width="22" height="47" as="alternateBounds" />
          </mxGeometry>
        </mxCell>
        <mxCell id="maJjd6y7SNSq4FLqFDlG-61" style="shape=tableRow;horizontal=0;startSize=0;swimlaneHead=0;swimlaneBody=0;fillColor=none;collapsible=0;dropTarget=0;points=[[0,0.5],[1,0.5]];portConstraint=eastwest;top=0;left=0;right=0;bottom=0;" vertex="1" parent="maJjd6y7SNSq4FLqFDlG-56">
          <mxGeometry y="72" width="237" height="47" as="geometry" />
        </mxCell>
        <mxCell id="maJjd6y7SNSq4FLqFDlG-62" value="uuid" style="shape=partialRectangle;connectable=0;fillColor=none;top=0;left=0;bottom=0;right=0;align=left;spacingLeft=2;overflow=hidden;fontSize=11;" vertex="1" parent="maJjd6y7SNSq4FLqFDlG-61">
          <mxGeometry width="48" height="47" as="geometry">
            <mxRectangle width="48" height="47" as="alternateBounds" />
          </mxGeometry>
        </mxCell>
        <mxCell id="maJjd6y7SNSq4FLqFDlG-63" value="user_id" style="shape=partialRectangle;connectable=0;fillColor=none;top=0;left=0;bottom=0;right=0;align=left;spacingLeft=2;overflow=hidden;fontSize=11;" vertex="1" parent="maJjd6y7SNSq4FLqFDlG-61">
          <mxGeometry x="48" width="167" height="47" as="geometry">
            <mxRectangle width="167" height="47" as="alternateBounds" />
          </mxGeometry>
        </mxCell>
        <mxCell id="maJjd6y7SNSq4FLqFDlG-64" value="FK" style="shape=partialRectangle;connectable=0;fillColor=none;top=0;left=0;bottom=0;right=0;align=left;spacingLeft=2;overflow=hidden;fontSize=11;" vertex="1" parent="maJjd6y7SNSq4FLqFDlG-61">
          <mxGeometry x="215" width="22" height="47" as="geometry">
            <mxRectangle width="22" height="47" as="alternateBounds" />
          </mxGeometry>
        </mxCell>
        <mxCell id="maJjd6y7SNSq4FLqFDlG-65" style="shape=tableRow;horizontal=0;startSize=0;swimlaneHead=0;swimlaneBody=0;fillColor=none;collapsible=0;dropTarget=0;points=[[0,0.5],[1,0.5]];portConstraint=eastwest;top=0;left=0;right=0;bottom=0;" vertex="1" parent="maJjd6y7SNSq4FLqFDlG-56">
          <mxGeometry y="119" width="237" height="47" as="geometry" />
        </mxCell>
        <mxCell id="maJjd6y7SNSq4FLqFDlG-66" value="string" style="shape=partialRectangle;connectable=0;fillColor=none;top=0;left=0;bottom=0;right=0;align=left;spacingLeft=2;overflow=hidden;fontSize=11;" vertex="1" parent="maJjd6y7SNSq4FLqFDlG-65">
          <mxGeometry width="48" height="47" as="geometry">
            <mxRectangle width="48" height="47" as="alternateBounds" />
          </mxGeometry>
        </mxCell>
        <mxCell id="maJjd6y7SNSq4FLqFDlG-67" value="source" style="shape=partialRectangle;connectable=0;fillColor=none;top=0;left=0;bottom=0;right=0;align=left;spacingLeft=2;overflow=hidden;fontSize=11;" vertex="1" parent="maJjd6y7SNSq4FLqFDlG-65">
          <mxGeometry x="48" width="167" height="47" as="geometry">
            <mxRectangle width="167" height="47" as="alternateBounds" />
          </mxGeometry>
        </mxCell>
        <mxCell id="maJjd6y7SNSq4FLqFDlG-68" value="" style="shape=partialRectangle;connectable=0;fillColor=none;top=0;left=0;bottom=0;right=0;align=left;spacingLeft=2;overflow=hidden;fontSize=11;" vertex="1" parent="maJjd6y7SNSq4FLqFDlG-65">
          <mxGeometry x="215" width="22" height="47" as="geometry">
            <mxRectangle width="22" height="47" as="alternateBounds" />
          </mxGeometry>
        </mxCell>
        <mxCell id="maJjd6y7SNSq4FLqFDlG-69" style="shape=tableRow;horizontal=0;startSize=0;swimlaneHead=0;swimlaneBody=0;fillColor=none;collapsible=0;dropTarget=0;points=[[0,0.5],[1,0.5]];portConstraint=eastwest;top=0;left=0;right=0;bottom=0;" vertex="1" parent="maJjd6y7SNSq4FLqFDlG-56">
          <mxGeometry y="166" width="237" height="47" as="geometry" />
        </mxCell>
        <mxCell id="maJjd6y7SNSq4FLqFDlG-70" value="datetime" style="shape=partialRectangle;connectable=0;fillColor=none;top=0;left=0;bottom=0;right=0;align=left;spacingLeft=2;overflow=hidden;fontSize=11;" vertex="1" parent="maJjd6y7SNSq4FLqFDlG-69">
          <mxGeometry width="48" height="47" as="geometry">
            <mxRectangle width="48" height="47" as="alternateBounds" />
          </mxGeometry>
        </mxCell>
        <mxCell id="maJjd6y7SNSq4FLqFDlG-71" value="created_at" style="shape=partialRectangle;connectable=0;fillColor=none;top=0;left=0;bottom=0;right=0;align=left;spacingLeft=2;overflow=hidden;fontSize=11;" vertex="1" parent="maJjd6y7SNSq4FLqFDlG-69">
          <mxGeometry x="48" width="167" height="47" as="geometry">
            <mxRectangle width="167" height="47" as="alternateBounds" />
          </mxGeometry>
        </mxCell>
        <mxCell id="maJjd6y7SNSq4FLqFDlG-72" value="" style="shape=partialRectangle;connectable=0;fillColor=none;top=0;left=0;bottom=0;right=0;align=left;spacingLeft=2;overflow=hidden;fontSize=11;" vertex="1" parent="maJjd6y7SNSq4FLqFDlG-69">
          <mxGeometry x="215" width="22" height="47" as="geometry">
            <mxRectangle width="22" height="47" as="alternateBounds" />
          </mxGeometry>
        </mxCell>
        <mxCell id="maJjd6y7SNSq4FLqFDlG-73" value="has" style="curved=1;startArrow=ERmandOne;startSize=10;;endArrow=ERzeroToMany;endSize=10;;exitX=0;exitY=0.99;entryX=0.5;entryY=0;rounded=0;" edge="1" parent="1" source="maJjd6y7SNSq4FLqFDlG-1" target="maJjd6y7SNSq4FLqFDlG-14">
          <mxGeometry relative="1" as="geometry">
            <Array as="points">
              <mxPoint x="239" y="252" />
            </Array>
          </mxGeometry>
        </mxCell>
        <mxCell id="maJjd6y7SNSq4FLqFDlG-74" value="contains" style="curved=1;startArrow=ERmandOne;startSize=10;;endArrow=ERzeroToMany;endSize=10;;exitX=0.5;exitY=1;entryX=0.5;entryY=0;rounded=0;" edge="1" parent="1" source="maJjd6y7SNSq4FLqFDlG-14" target="maJjd6y7SNSq4FLqFDlG-35">
          <mxGeometry relative="1" as="geometry">
            <Array as="points" />
          </mxGeometry>
        </mxCell>
        <mxCell id="maJjd6y7SNSq4FLqFDlG-75" value="may register" style="curved=1;startArrow=ERmandOne;startSize=10;;endArrow=ERzeroToMany;endSize=10;;exitX=1;exitY=0.99;entryX=0.5;entryY=0;rounded=0;" edge="1" parent="1" source="maJjd6y7SNSq4FLqFDlG-1" target="maJjd6y7SNSq4FLqFDlG-56">
          <mxGeometry relative="1" as="geometry">
            <Array as="points">
              <mxPoint x="626" y="252" />
            </Array>
          </mxGeometry>
        </mxCell>
      </root>
    </mxGraphModel>
  </diagram>
</mxfile>
